<svg width="256" height="256" viewBox="0 0 256 256" fill="none" xmlns="http://www.w3.org/2000/svg">
<g clip-path="url(#clip0_784_317)">
<rect width="256" height="256" rx="60" fill="url(#paint0_linear_784_317)"/>
<path d="M194.903 153.062V183.416H118.781C96.6033 183.416 77.2392 171.208 66.8791 153.062C65.373 150.423 64.0548 147.656 62.9491 144.783C60.7784 139.154 59.414 133.113 59 126.811V118.604C59.0899 117.2 59.2315 115.806 59.4167 114.429C59.7953 111.604 60.3672 108.839 61.1189 106.151C68.2299 80.6704 91.3524 62 118.781 62C146.209 62 169.329 80.6704 176.44 106.151H143.891C138.548 97.8452 129.299 92.3539 118.781 92.3539C108.263 92.3539 99.0135 97.8452 93.67 106.151C92.0414 108.676 90.7777 111.46 89.9498 114.429C89.2144 117.062 88.8222 119.838 88.8222 122.708C88.8222 131.408 92.4336 139.251 98.2237 144.783C103.589 149.919 110.823 153.062 118.781 153.062H194.903Z" fill="#FD366E"/>
<path d="M194.903 114.429V144.783H139.338C145.128 139.251 148.739 131.408 148.739 122.708C148.739 119.838 148.347 117.062 147.612 114.429H194.903Z" fill="#FD366E"/>
</g>
<defs>
<linearGradient id="paint0_linear_784_317" x1="256" y1="1.51098e-05" x2="2.49999" y2="253.5" gradientUnits="userSpaceOnUse">
<stop stop-color="#B44B5B"/>
<stop offset="0.628846" stop-color="#261B22"/>
</linearGradient>
<clipPath id="clip0_784_317">
<rect width="256" height="256" fill="white"/>
</clipPath>
</defs>
</svg>
